<svg width="22" height="22" viewBox="0 0 22 22" fill="none" xmlns="http://www.w3.org/2000/svg">
<path d="M19.5 0.5H3C2.39062 0.5 1.82812 0.78125 1.40625 1.20312C0.984375 1.625 0.75 2.1875 0.75 2.75V19.25C0.75 19.8594 0.984375 20.4219 1.40625 20.8438C1.82812 21.2656 2.39062 21.5 3 21.5H9.42188V14.375H6.46875V11H9.42188V8.46875C9.42188 5.5625 11.1562 3.92188 13.7812 3.92188C15.0938 3.92188 16.4062 4.15625 16.4062 4.15625V7.01562H14.9531C13.5 7.01562 13.0312 7.90625 13.0312 8.84375V11H16.2656L15.75 14.375H13.0312V21.5H19.5C20.0625 21.5 20.625 21.2656 21.0469 20.8438C21.4688 20.4219 21.75 19.8594 21.75 19.25V2.75C21.75 2.1875 21.4688 1.625 21.0469 1.20312C20.625 0.78125 20.0625 0.5 19.5 0.5Z" fill="#F4F9FF"/>
</svg>
