<svg width="22" height="22" viewBox="0 0 22 22" fill="none" xmlns="http://www.w3.org/2000/svg">
<path d="M11.25 5.60938C8.25 5.60938 5.85938 8.04688 5.85938 11C5.85938 14 8.25 16.3906 11.25 16.3906C14.2031 16.3906 16.6406 14 16.6406 11C16.6406 8.04688 14.2031 5.60938 11.25 5.60938ZM11.25 14.5156C9.32812 14.5156 7.73438 12.9688 7.73438 11C7.73438 9.07812 9.28125 7.53125 11.25 7.53125C13.1719 7.53125 14.7188 9.07812 14.7188 11C14.7188 12.9688 13.1719 14.5156 11.25 14.5156ZM18.0938 5.42188C18.0938 6.125 17.5312 6.6875 16.8281 6.6875C16.125 6.6875 15.5625 6.125 15.5625 5.42188C15.5625 4.71875 16.125 4.15625 16.8281 4.15625C17.5312 4.15625 18.0938 4.71875 18.0938 5.42188ZM21.6562 6.6875C21.5625 5 21.1875 3.5 19.9688 2.28125C18.75 1.0625 17.25 0.6875 15.5625 0.59375C13.8281 0.5 8.625 0.5 6.89062 0.59375C5.20312 0.6875 3.75 1.0625 2.48438 2.28125C1.26562 3.5 0.890625 5 0.796875 6.6875C0.703125 8.42188 0.703125 13.625 0.796875 15.3594C0.890625 17.0469 1.26562 18.5 2.48438 19.7656C3.75 20.9844 5.20312 21.3594 6.89062 21.4531C8.625 21.5469 13.8281 21.5469 15.5625 21.4531C17.25 21.3594 18.75 20.9844 19.9688 19.7656C21.1875 18.5 21.5625 17.0469 21.6562 15.3594C21.75 13.625 21.75 8.42188 21.6562 6.6875ZM19.4062 17.1875C19.0781 18.125 18.3281 18.8281 17.4375 19.2031C16.0312 19.7656 12.75 19.625 11.25 19.625C9.70312 19.625 6.42188 19.7656 5.0625 19.2031C4.125 18.8281 3.42188 18.125 3.04688 17.1875C2.48438 15.8281 2.625 12.5469 2.625 11C2.625 9.5 2.48438 6.21875 3.04688 4.8125C3.42188 3.92188 4.125 3.21875 5.0625 2.84375C6.42188 2.28125 9.70312 2.42188 11.25 2.42188C12.75 2.42188 16.0312 2.28125 17.4375 2.84375C18.3281 3.17188 19.0312 3.92188 19.4062 4.8125C19.9688 6.21875 19.8281 9.5 19.8281 11C19.8281 12.5469 19.9688 15.8281 19.4062 17.1875Z" fill="#F4F9FF"/>
</svg>
