<svg width="21" height="24" viewBox="0 0 21 24" fill="none" xmlns="http://www.w3.org/2000/svg">
<path d="M10.7419 0.77168C11.9696 0.75293 13.1884 0.76268 14.4064 0.75293C14.4469 2.27618 15.0649 3.64718 16.0481 4.66268L16.0466 4.66118C17.1049 5.61443 18.4819 6.23243 19.9999 6.33743L20.0209 6.33893V10.1159C18.5869 10.0799 17.2384 9.74918 16.0226 9.18068L16.0841 9.20618C15.4961 8.92343 14.9989 8.63318 14.5264 8.30918L14.5654 8.33468C14.5564 11.0714 14.5744 13.8082 14.5466 16.5352C14.4694 17.9249 14.0074 19.1924 13.2664 20.2507L13.2814 20.2274C12.0424 22.0019 10.0354 23.1667 7.75313 23.2357H7.74263C7.65038 23.2402 7.54163 23.2424 7.43213 23.2424C6.13463 23.2424 4.92188 22.8809 3.88838 22.2532L3.91838 22.2704C2.03738 21.1387 0.739883 19.2022 0.499883 16.9499L0.496883 16.9192C0.478133 16.4504 0.469133 15.9817 0.487883 15.5227C0.855383 11.9384 3.85838 9.16568 7.50863 9.16568C7.91888 9.16568 8.32088 9.20093 8.71163 9.26768L8.66963 9.26168C8.68838 10.6484 8.63213 12.0359 8.63213 13.4227C8.31488 13.3079 7.94888 13.2412 7.56713 13.2412C6.16613 13.2412 4.97438 14.1367 4.53338 15.3869L4.52663 15.4094C4.42688 15.7297 4.36913 16.0979 4.36913 16.4789C4.36913 16.6334 4.37888 16.7864 4.39688 16.9364L4.39538 16.9184C4.64438 18.4529 5.95988 19.6109 7.54613 19.6109C7.59188 19.6109 7.63688 19.6102 7.68188 19.6079H7.67513C8.77238 19.5749 9.72488 18.9847 10.2634 18.1124L10.2709 18.0989C10.4711 17.8199 10.6084 17.4824 10.6541 17.1157L10.6549 17.1052C10.7486 15.4274 10.7111 13.7594 10.7201 12.0817C10.7291 8.30468 10.7111 4.53668 10.7389 0.76943L10.7419 0.77168Z" fill="#F4F9FF"/>
</svg>
