<svg width="24" height="17" viewBox="0 0 24 17" fill="none" xmlns="http://www.w3.org/2000/svg">
<path d="M23.4648 3.12109C23.207 2.08984 22.3906 1.27344 21.4023 1.01562C19.5547 0.5 12.25 0.5 12.25 0.5C12.25 0.5 4.90234 0.5 3.05469 1.01562C2.06641 1.27344 1.25 2.08984 0.992188 3.12109C0.476562 4.92578 0.476562 8.79297 0.476562 8.79297C0.476562 8.79297 0.476562 12.6172 0.992188 14.4648C1.25 15.4961 2.06641 16.2695 3.05469 16.5273C4.90234 17 12.25 17 12.25 17C12.25 17 19.5547 17 21.4023 16.5273C22.3906 16.2695 23.207 15.4961 23.4648 14.4648C23.9805 12.6172 23.9805 8.79297 23.9805 8.79297C23.9805 8.79297 23.9805 4.92578 23.4648 3.12109ZM9.84375 12.2734V5.3125L15.9453 8.79297L9.84375 12.2734Z" fill="#F4F9FF"/>
</svg>
