<svg width="768" height="256" viewBox="0 0 768 256" fill="none" xmlns="http://www.w3.org/2000/svg">
<g filter="url(#filter0_d_929_3082)">
<path d="M25.6563 22.0748V92.6261H46.2262C56.7526 92.6261 64.0921 87.3702 68.2447 76.8584C70.5142 71.0891 71.6489 64.2198 71.6489 56.2504C71.6489 45.2497 69.9347 36.8158 66.5064 30.9487C63.1264 25.0328 56.3663 22.0748 46.2262 22.0748H25.6563ZM49.9926 3.30022C56.6078 3.398 62.1124 4.18028 66.5064 5.64704C73.9908 8.14054 80.0507 12.712 84.6862 19.3613C88.4042 24.7394 90.9392 30.5576 92.2912 36.8158C93.6432 43.074 94.3193 49.0388 94.3193 54.7103C94.3193 69.0846 91.4704 81.2587 85.7726 91.2327C78.0468 104.678 66.1201 111.401 49.9926 111.401H4V3.30022H49.9926Z" fill="url(#paint0_linear_929_3082)"/>
<path d="M131.62 111.401H109.457V3.30022H131.62V111.401Z" fill="url(#paint1_linear_929_3082)"/>
<path d="M168.632 78.0318C169.308 82.9699 170.636 86.6613 172.615 89.1059C176.237 93.5551 182.441 95.7797 191.23 95.7797C196.493 95.7797 200.766 95.193 204.05 94.0195C210.278 91.7705 213.393 87.5902 213.393 81.4787C213.393 77.9096 211.848 75.1472 208.757 73.1915C205.667 71.2847 200.814 69.5979 194.199 68.1312L182.9 65.5643C171.794 63.0219 164.117 60.2595 159.868 57.2771C152.673 52.2901 149.076 44.4918 149.076 33.8822C149.076 24.2016 152.552 16.1588 159.506 9.75398C166.459 3.34911 176.671 0.146676 190.143 0.146676C201.394 0.146676 210.979 3.17799 218.898 9.24061C226.865 15.2543 231.042 24.006 231.428 35.4957H209.989C209.602 28.993 206.802 24.3727 201.587 21.6348C198.11 19.8258 193.789 18.9212 188.622 18.9212C182.876 18.9212 178.289 20.0947 174.861 22.4415C171.432 24.7883 169.718 28.0641 169.718 32.2688C169.718 36.1313 171.408 39.0159 174.788 40.9227C176.961 42.1939 181.596 43.6851 188.695 45.3963L207.092 49.87C215.155 51.8256 221.239 54.4414 225.344 57.7171C231.718 62.8019 234.904 70.1602 234.904 79.7919C234.904 89.6682 231.162 97.882 223.678 104.434C216.242 110.936 205.715 114.188 192.099 114.188C178.192 114.188 167.255 110.985 159.288 104.58C151.321 98.1265 147.337 89.277 147.337 78.0318H168.632Z" fill="url(#paint2_linear_929_3082)"/>
<path d="M246.783 58.2305C246.783 39.3582 251.78 24.8128 261.776 14.5943C270.467 5.69593 281.525 1.24675 294.948 1.24675C312.911 1.24675 326.045 7.21159 334.35 19.1413C338.937 25.8395 341.4 32.5622 341.738 39.3093H319.429C317.981 34.1267 316.122 30.2153 313.852 27.5752C309.796 22.8815 303.785 20.5347 295.817 20.5347C287.705 20.5347 281.307 23.8594 276.624 30.5087C271.94 37.1091 269.598 46.472 269.598 58.5972C269.598 70.7225 272.061 79.8164 276.986 85.879C281.959 91.8927 288.261 94.8996 295.89 94.8996C303.712 94.8996 309.676 92.3083 313.78 87.1258C316.049 84.3389 317.932 80.1586 319.429 74.5849H341.52C339.589 86.3679 334.639 95.9508 326.672 103.333C318.753 110.716 308.589 114.408 296.18 114.408C280.825 114.408 268.753 109.421 259.965 99.4466C251.177 89.4237 246.783 75.685 246.783 58.2305Z" fill="url(#paint3_linear_929_3082)"/>
<path d="M405.837 95.2663C414.674 95.2663 421.675 91.9661 426.842 85.3656C432.057 78.7652 434.664 69.3779 434.664 57.2038C434.664 45.0785 432.057 35.7157 426.842 29.1153C421.675 22.4659 414.674 19.1413 405.837 19.1413C397.001 19.1413 389.951 22.4415 384.688 29.0419C379.425 35.6424 376.793 45.0296 376.793 57.2038C376.793 69.3779 379.425 78.7652 384.688 85.3656C389.951 91.9661 397.001 95.2663 405.837 95.2663ZM456.972 57.2038C456.972 76.614 451.589 91.4772 440.821 101.793C432.757 110.203 421.096 114.408 405.837 114.408C390.579 114.408 378.918 110.203 370.854 101.793C360.038 91.4772 354.63 76.614 354.63 57.2038C354.63 37.4025 360.038 22.5393 370.854 12.6142C378.918 4.20472 390.579 0 405.837 0C421.096 0 432.757 4.20472 440.821 12.6142C451.589 22.5393 456.972 37.4025 456.972 57.2038Z" fill="url(#paint4_linear_929_3082)"/>
<path d="M536.572 3.30022H559.75L523.318 111.401H502.241L466.171 3.30022H490L513.178 85.3656L536.572 3.30022Z" fill="url(#paint5_linear_929_3082)"/>
<path d="M651.952 22.4415H595.457V45.3963H647.316V64.1709H595.457V91.9661H654.559V111.401H573.656V3.30022H651.952V22.4415Z" fill="url(#paint6_linear_929_3082)"/>
<path d="M421.048 204.364V206.857C421.241 215.218 422.134 221.109 423.727 224.532C425.369 227.905 428.846 229.592 434.157 229.592C439.42 229.592 442.897 227.734 444.587 224.018C445.601 221.818 446.108 218.102 446.108 212.871V137.259H468.416V212.504C468.416 221.696 466.847 228.981 463.708 234.359C458.397 243.453 448.812 248 434.954 248C421.096 248 411.801 244.333 407.069 236.999C402.337 229.617 399.971 219.569 399.971 206.857V204.364H421.048Z" fill="url(#paint7_linear_929_3082)"/>
<path d="M519.769 204.51H546.857L533.53 161.974L519.769 204.51ZM521.145 137.259H546.35L584.158 245.36H559.967L553.086 223.138H513.757L506.369 245.36H483.047L521.145 137.259Z" fill="url(#paint8_linear_929_3082)"/>
<path d="M590.242 226.292L645.361 156.401H591.618V137.259H673.174V155.374L617.331 226.292H673.319V245.36H590.242V226.292Z" fill="url(#paint9_linear_929_3082)"/>
<path d="M680.924 226.292L736.042 156.401H682.3V137.259H763.855V155.374L708.012 226.292H764V245.36H680.924V226.292Z" fill="url(#paint10_linear_929_3082)"/>
<path fill-rule="evenodd" clip-rule="evenodd" d="M724.816 3.30022C732.3 3.44689 738.046 4.37584 742.054 6.08707C746.11 7.79829 749.538 10.3162 752.339 13.6409C754.657 16.3789 756.492 19.4102 757.844 22.7348C759.195 26.0595 759.872 29.8486 759.872 34.1023C759.872 39.2359 758.592 44.2963 756.033 49.2833C753.474 54.2214 749.249 57.7171 743.358 59.7706C748.283 61.7752 751.759 64.6354 753.787 68.3512C755.864 72.0181 756.902 77.6407 756.902 85.219V92.4794C756.902 97.4175 756.902 110.893 756.902 110.893H734.594V105.819C734.594 105.819 734.642 99.471 734.594 96.293L734.449 86.2457C734.352 79.3519 733.097 74.7561 730.682 72.4581C728.316 70.1602 723.85 69.0112 717.283 69.0112H694.251V111.401H672.449V3.30022H724.816ZM694.251 51.1167V22.0748H720.18C725.009 22.0748 728.63 22.7104 731.045 23.9816C735.342 26.2306 737.491 30.6309 737.491 37.1825C737.491 43.2451 735.27 47.3031 730.827 49.3566C728.317 50.53 724.55 51.1167 719.528 51.1167H694.251Z" fill="url(#paint11_linear_929_3082)"/>
</g>
<defs>
<filter id="filter0_d_929_3082" x="0" y="0" width="768" height="256" filterUnits="userSpaceOnUse" color-interpolation-filters="sRGB">
<feFlood flood-opacity="0" result="BackgroundImageFix"/>
<feColorMatrix in="SourceAlpha" type="matrix" values="0 0 0 0 0 0 0 0 0 0 0 0 0 0 0 0 0 0 127 0" result="hardAlpha"/>
<feOffset dy="4"/>
<feGaussianBlur stdDeviation="2"/>
<feComposite in2="hardAlpha" operator="out"/>
<feColorMatrix type="matrix" values="0 0 0 0 0 0 0 0 0 0 0 0 0 0 0 0 0 0 0.25 0"/>
<feBlend mode="normal" in2="BackgroundImageFix" result="effect1_dropShadow_929_3082"/>
<feBlend mode="normal" in="SourceGraphic" in2="effect1_dropShadow_929_3082" result="shape"/>
</filter>
<linearGradient id="paint0_linear_929_3082" x1="282.536" y1="-1.0261" x2="282.536" y2="240.254" gradientUnits="userSpaceOnUse">
<stop stop-color="#384CFF"/>
<stop offset="0.588542" stop-color="#6D70F7"/>
<stop offset="1" stop-color="#9BA6FF"/>
</linearGradient>
<linearGradient id="paint1_linear_929_3082" x1="282.536" y1="-1.0261" x2="282.536" y2="240.254" gradientUnits="userSpaceOnUse">
<stop stop-color="#384CFF"/>
<stop offset="0.588542" stop-color="#6D70F7"/>
<stop offset="1" stop-color="#9BA6FF"/>
</linearGradient>
<linearGradient id="paint2_linear_929_3082" x1="282.536" y1="-1.0261" x2="282.536" y2="240.254" gradientUnits="userSpaceOnUse">
<stop stop-color="#384CFF"/>
<stop offset="0.588542" stop-color="#6D70F7"/>
<stop offset="1" stop-color="#9BA6FF"/>
</linearGradient>
<linearGradient id="paint3_linear_929_3082" x1="282.536" y1="-1.0261" x2="282.536" y2="240.254" gradientUnits="userSpaceOnUse">
<stop stop-color="#384CFF"/>
<stop offset="0.588542" stop-color="#6D70F7"/>
<stop offset="1" stop-color="#9BA6FF"/>
</linearGradient>
<linearGradient id="paint4_linear_929_3082" x1="282.536" y1="-1.0261" x2="282.536" y2="240.254" gradientUnits="userSpaceOnUse">
<stop stop-color="#384CFF"/>
<stop offset="0.588542" stop-color="#6D70F7"/>
<stop offset="1" stop-color="#9BA6FF"/>
</linearGradient>
<linearGradient id="paint5_linear_929_3082" x1="282.536" y1="-1.0261" x2="282.536" y2="240.254" gradientUnits="userSpaceOnUse">
<stop stop-color="#384CFF"/>
<stop offset="0.588542" stop-color="#6D70F7"/>
<stop offset="1" stop-color="#9BA6FF"/>
</linearGradient>
<linearGradient id="paint6_linear_929_3082" x1="282.536" y1="-1.0261" x2="282.536" y2="240.254" gradientUnits="userSpaceOnUse">
<stop stop-color="#384CFF"/>
<stop offset="0.588542" stop-color="#6D70F7"/>
<stop offset="1" stop-color="#9BA6FF"/>
</linearGradient>
<linearGradient id="paint7_linear_929_3082" x1="282.536" y1="-1.0261" x2="282.536" y2="240.254" gradientUnits="userSpaceOnUse">
<stop stop-color="#384CFF"/>
<stop offset="0.588542" stop-color="#6D70F7"/>
<stop offset="1" stop-color="#9BA6FF"/>
</linearGradient>
<linearGradient id="paint8_linear_929_3082" x1="282.536" y1="-1.0261" x2="282.536" y2="240.254" gradientUnits="userSpaceOnUse">
<stop stop-color="#384CFF"/>
<stop offset="0.588542" stop-color="#6D70F7"/>
<stop offset="1" stop-color="#9BA6FF"/>
</linearGradient>
<linearGradient id="paint9_linear_929_3082" x1="282.536" y1="-1.0261" x2="282.536" y2="240.254" gradientUnits="userSpaceOnUse">
<stop stop-color="#384CFF"/>
<stop offset="0.588542" stop-color="#6D70F7"/>
<stop offset="1" stop-color="#9BA6FF"/>
</linearGradient>
<linearGradient id="paint10_linear_929_3082" x1="282.536" y1="-1.0261" x2="282.536" y2="240.254" gradientUnits="userSpaceOnUse">
<stop stop-color="#384CFF"/>
<stop offset="0.588542" stop-color="#6D70F7"/>
<stop offset="1" stop-color="#9BA6FF"/>
</linearGradient>
<linearGradient id="paint11_linear_929_3082" x1="282.536" y1="-1.0261" x2="282.536" y2="240.254" gradientUnits="userSpaceOnUse">
<stop stop-color="#384CFF"/>
<stop offset="0.588542" stop-color="#6D70F7"/>
<stop offset="1" stop-color="#9BA6FF"/>
</linearGradient>
</defs>
</svg>
