<svg width="762" height="250" viewBox="0 0 762 250" fill="none" xmlns="http://www.w3.org/2000/svg">
<mask id="path-1-outside-1_929_3082" maskUnits="userSpaceOnUse" x="0" y="0" width="762" height="250" fill="black">
<rect fill="white" width="762" height="250"/>
<path d="M22.6563 23.0748V93.6261H43.2262C53.7526 93.6261 61.0921 88.3702 65.2447 77.8584C67.5142 72.0891 68.6489 65.2198 68.6489 57.2504C68.6489 46.2497 66.9347 37.8158 63.5064 31.9487C60.1264 26.0328 53.3663 23.0748 43.2262 23.0748H22.6563ZM46.9926 4.30022C53.6078 4.398 59.1124 5.18028 63.5064 6.64704C70.9908 9.14054 77.0507 13.712 81.6862 20.3613C85.4042 25.7394 87.9392 31.5576 89.2912 37.8158C90.6432 44.074 91.3193 50.0388 91.3193 55.7103C91.3193 70.0846 88.4704 82.2587 82.7726 92.2327C75.0468 105.678 63.1201 112.401 46.9926 112.401H1V4.30022H46.9926Z"/>
<path d="M128.62 112.401H106.457V4.30022H128.62V112.401Z"/>
<path d="M165.632 79.0318C166.308 83.9699 167.636 87.6613 169.615 90.1059C173.237 94.5551 179.441 96.7797 188.23 96.7797C193.493 96.7797 197.766 96.193 201.05 95.0195C207.278 92.7705 210.393 88.5902 210.393 82.4787C210.393 78.9096 208.848 76.1472 205.757 74.1915C202.667 72.2847 197.814 70.5979 191.199 69.1312L179.9 66.5643C168.794 64.0219 161.117 61.2595 156.868 58.2771C149.673 53.2901 146.076 45.4918 146.076 34.8822C146.076 25.2016 149.552 17.1588 156.506 10.754C163.459 4.34911 173.671 1.14668 187.143 1.14668C198.394 1.14668 207.979 4.17799 215.898 10.2406C223.865 16.2543 228.042 25.006 228.428 36.4957H206.989C206.602 29.993 203.802 25.3727 198.587 22.6348C195.11 20.8258 190.789 19.9212 185.622 19.9212C179.876 19.9212 175.289 21.0947 171.861 23.4415C168.432 25.7883 166.718 29.0641 166.718 33.2688C166.718 37.1313 168.408 40.0159 171.788 41.9227C173.961 43.1939 178.596 44.6851 185.695 46.3963L204.092 50.87C212.155 52.8256 218.239 55.4414 222.344 58.7171C228.718 63.8019 231.904 71.1602 231.904 80.7919C231.904 90.6682 228.162 98.882 220.678 105.434C213.242 111.936 202.715 115.188 189.099 115.188C175.192 115.188 164.255 111.985 156.288 105.58C148.321 99.1265 144.337 90.277 144.337 79.0318H165.632Z"/>
<path d="M243.783 59.2305C243.783 40.3582 248.78 25.8128 258.776 15.5943C267.467 6.69593 278.525 2.24675 291.948 2.24675C309.911 2.24675 323.045 8.21159 331.35 20.1413C335.937 26.8395 338.4 33.5622 338.738 40.3093H316.429C314.981 35.1267 313.122 31.2153 310.852 28.5752C306.796 23.8815 300.785 21.5347 292.817 21.5347C284.705 21.5347 278.307 24.8594 273.624 31.5087C268.94 38.1091 266.598 47.472 266.598 59.5972C266.598 71.7225 269.061 80.8164 273.986 86.879C278.959 92.8927 285.261 95.8996 292.89 95.8996C300.712 95.8996 306.676 93.3083 310.78 88.1258C313.049 85.3389 314.932 81.1586 316.429 75.5849H338.52C336.589 87.3679 331.639 96.9508 323.672 104.333C315.753 111.716 305.589 115.408 293.18 115.408C277.825 115.408 265.753 110.421 256.965 100.447C248.177 90.4237 243.783 76.685 243.783 59.2305Z"/>
<path d="M402.837 96.2663C411.674 96.2663 418.675 92.9661 423.842 86.3656C429.057 79.7652 431.664 70.3779 431.664 58.2038C431.664 46.0785 429.057 36.7157 423.842 30.1153C418.675 23.4659 411.674 20.1413 402.837 20.1413C394.001 20.1413 386.951 23.4415 381.688 30.0419C376.425 36.6424 373.793 46.0296 373.793 58.2038C373.793 70.3779 376.425 79.7652 381.688 86.3656C386.951 92.9661 394.001 96.2663 402.837 96.2663ZM453.972 58.2038C453.972 77.614 448.589 92.4772 437.821 102.793C429.757 111.203 418.096 115.408 402.837 115.408C387.579 115.408 375.918 111.203 367.854 102.793C357.038 92.4772 351.63 77.614 351.63 58.2038C351.63 38.4025 357.038 23.5393 367.854 13.6142C375.918 5.20472 387.579 1 402.837 1C418.096 1 429.757 5.20472 437.821 13.6142C448.589 23.5393 453.972 38.4025 453.972 58.2038Z"/>
<path d="M533.572 4.30022H556.75L520.318 112.401H499.241L463.171 4.30022H487L510.178 86.3656L533.572 4.30022Z"/>
<path d="M648.952 23.4415H592.457V46.3963H644.316V65.1709H592.457V92.9661H651.559V112.401H570.656V4.30022H648.952V23.4415Z"/>
<path d="M418.048 205.364V207.857C418.241 216.218 419.134 222.109 420.727 225.532C422.369 228.905 425.846 230.592 431.157 230.592C436.42 230.592 439.897 228.734 441.587 225.018C442.601 222.818 443.108 219.102 443.108 213.871V138.259H465.416V213.504C465.416 222.696 463.847 229.981 460.708 235.359C455.397 244.453 445.812 249 431.954 249C418.096 249 408.801 245.333 404.069 237.999C399.337 230.617 396.971 220.569 396.971 207.857V205.364H418.048Z"/>
<path d="M516.769 205.51H543.857L530.53 162.974L516.769 205.51ZM518.145 138.259H543.35L581.158 246.36H556.967L550.086 224.138H510.757L503.369 246.36H480.047L518.145 138.259Z"/>
<path d="M587.242 227.292L642.361 157.401H588.618V138.259H670.174V156.374L614.331 227.292H670.319V246.36H587.242V227.292Z"/>
<path d="M677.924 227.292L733.042 157.401H679.3V138.259H760.855V156.374L705.012 227.292H761V246.36H677.924V227.292Z"/>
<path fill-rule="evenodd" clip-rule="evenodd" d="M721.816 4.30022C729.3 4.44689 735.046 5.37584 739.054 7.08707C743.11 8.79829 746.538 11.3162 749.339 14.6409C751.657 17.3789 753.492 20.4102 754.844 23.7348C756.195 27.0595 756.872 30.8486 756.872 35.1023C756.872 40.2359 755.592 45.2963 753.033 50.2833C750.474 55.2214 746.249 58.7171 740.358 60.7706C745.283 62.7752 748.759 65.6354 750.787 69.3512C752.864 73.0181 753.902 78.6407 753.902 86.219V93.4794C753.902 98.4175 753.902 111.893 753.902 111.893H731.594V106.819C731.594 106.819 731.642 100.471 731.594 97.293L731.449 87.2457C731.352 80.3519 730.097 75.7561 727.682 73.4581C725.316 71.1602 720.85 70.0112 714.283 70.0112H691.251V112.401H669.449V4.30022H721.816ZM691.251 52.1167V23.0748H717.18C722.009 23.0748 725.63 23.7104 728.045 24.9816C732.342 27.2306 734.491 31.6309 734.491 38.1825C734.491 44.2451 732.27 48.3031 727.827 50.3566C725.317 51.53 721.55 52.1167 716.528 52.1167H691.251Z"/>
</mask>
<path d="M22.6563 23.0748V93.6261H43.2262C53.7526 93.6261 61.0921 88.3702 65.2447 77.8584C67.5142 72.0891 68.6489 65.2198 68.6489 57.2504C68.6489 46.2497 66.9347 37.8158 63.5064 31.9487C60.1264 26.0328 53.3663 23.0748 43.2262 23.0748H22.6563ZM46.9926 4.30022C53.6078 4.398 59.1124 5.18028 63.5064 6.64704C70.9908 9.14054 77.0507 13.712 81.6862 20.3613C85.4042 25.7394 87.9392 31.5576 89.2912 37.8158C90.6432 44.074 91.3193 50.0388 91.3193 55.7103C91.3193 70.0846 88.4704 82.2587 82.7726 92.2327C75.0468 105.678 63.1201 112.401 46.9926 112.401H1V4.30022H46.9926Z" fill="#D9D9D9"/>
<path d="M128.62 112.401H106.457V4.30022H128.62V112.401Z" fill="#D9D9D9"/>
<path d="M165.632 79.0318C166.308 83.9699 167.636 87.6613 169.615 90.1059C173.237 94.5551 179.441 96.7797 188.23 96.7797C193.493 96.7797 197.766 96.193 201.05 95.0195C207.278 92.7705 210.393 88.5902 210.393 82.4787C210.393 78.9096 208.848 76.1472 205.757 74.1915C202.667 72.2847 197.814 70.5979 191.199 69.1312L179.9 66.5643C168.794 64.0219 161.117 61.2595 156.868 58.2771C149.673 53.2901 146.076 45.4918 146.076 34.8822C146.076 25.2016 149.552 17.1588 156.506 10.754C163.459 4.34911 173.671 1.14668 187.143 1.14668C198.394 1.14668 207.979 4.17799 215.898 10.2406C223.865 16.2543 228.042 25.006 228.428 36.4957H206.989C206.602 29.993 203.802 25.3727 198.587 22.6348C195.11 20.8258 190.789 19.9212 185.622 19.9212C179.876 19.9212 175.289 21.0947 171.861 23.4415C168.432 25.7883 166.718 29.0641 166.718 33.2688C166.718 37.1313 168.408 40.0159 171.788 41.9227C173.961 43.1939 178.596 44.6851 185.695 46.3963L204.092 50.87C212.155 52.8256 218.239 55.4414 222.344 58.7171C228.718 63.8019 231.904 71.1602 231.904 80.7919C231.904 90.6682 228.162 98.882 220.678 105.434C213.242 111.936 202.715 115.188 189.099 115.188C175.192 115.188 164.255 111.985 156.288 105.58C148.321 99.1265 144.337 90.277 144.337 79.0318H165.632Z" fill="#D9D9D9"/>
<path d="M243.783 59.2305C243.783 40.3582 248.78 25.8128 258.776 15.5943C267.467 6.69593 278.525 2.24675 291.948 2.24675C309.911 2.24675 323.045 8.21159 331.35 20.1413C335.937 26.8395 338.4 33.5622 338.738 40.3093H316.429C314.981 35.1267 313.122 31.2153 310.852 28.5752C306.796 23.8815 300.785 21.5347 292.817 21.5347C284.705 21.5347 278.307 24.8594 273.624 31.5087C268.94 38.1091 266.598 47.472 266.598 59.5972C266.598 71.7225 269.061 80.8164 273.986 86.879C278.959 92.8927 285.261 95.8996 292.89 95.8996C300.712 95.8996 306.676 93.3083 310.78 88.1258C313.049 85.3389 314.932 81.1586 316.429 75.5849H338.52C336.589 87.3679 331.639 96.9508 323.672 104.333C315.753 111.716 305.589 115.408 293.18 115.408C277.825 115.408 265.753 110.421 256.965 100.447C248.177 90.4237 243.783 76.685 243.783 59.2305Z" fill="#D9D9D9"/>
<path d="M402.837 96.2663C411.674 96.2663 418.675 92.9661 423.842 86.3656C429.057 79.7652 431.664 70.3779 431.664 58.2038C431.664 46.0785 429.057 36.7157 423.842 30.1153C418.675 23.4659 411.674 20.1413 402.837 20.1413C394.001 20.1413 386.951 23.4415 381.688 30.0419C376.425 36.6424 373.793 46.0296 373.793 58.2038C373.793 70.3779 376.425 79.7652 381.688 86.3656C386.951 92.9661 394.001 96.2663 402.837 96.2663ZM453.972 58.2038C453.972 77.614 448.589 92.4772 437.821 102.793C429.757 111.203 418.096 115.408 402.837 115.408C387.579 115.408 375.918 111.203 367.854 102.793C357.038 92.4772 351.63 77.614 351.63 58.2038C351.63 38.4025 357.038 23.5393 367.854 13.6142C375.918 5.20472 387.579 1 402.837 1C418.096 1 429.757 5.20472 437.821 13.6142C448.589 23.5393 453.972 38.4025 453.972 58.2038Z" fill="#D9D9D9"/>
<path d="M533.572 4.30022H556.75L520.318 112.401H499.241L463.171 4.30022H487L510.178 86.3656L533.572 4.30022Z" fill="#D9D9D9"/>
<path d="M648.952 23.4415H592.457V46.3963H644.316V65.1709H592.457V92.9661H651.559V112.401H570.656V4.30022H648.952V23.4415Z" fill="#D9D9D9"/>
<path d="M418.048 205.364V207.857C418.241 216.218 419.134 222.109 420.727 225.532C422.369 228.905 425.846 230.592 431.157 230.592C436.42 230.592 439.897 228.734 441.587 225.018C442.601 222.818 443.108 219.102 443.108 213.871V138.259H465.416V213.504C465.416 222.696 463.847 229.981 460.708 235.359C455.397 244.453 445.812 249 431.954 249C418.096 249 408.801 245.333 404.069 237.999C399.337 230.617 396.971 220.569 396.971 207.857V205.364H418.048Z" fill="#D9D9D9"/>
<path d="M516.769 205.51H543.857L530.53 162.974L516.769 205.51ZM518.145 138.259H543.35L581.158 246.36H556.967L550.086 224.138H510.757L503.369 246.36H480.047L518.145 138.259Z" fill="#D9D9D9"/>
<path d="M587.242 227.292L642.361 157.401H588.618V138.259H670.174V156.374L614.331 227.292H670.319V246.36H587.242V227.292Z" fill="#D9D9D9"/>
<path d="M677.924 227.292L733.042 157.401H679.3V138.259H760.855V156.374L705.012 227.292H761V246.36H677.924V227.292Z" fill="#D9D9D9"/>
<path fill-rule="evenodd" clip-rule="evenodd" d="M721.816 4.30022C729.3 4.44689 735.046 5.37584 739.054 7.08707C743.11 8.79829 746.538 11.3162 749.339 14.6409C751.657 17.3789 753.492 20.4102 754.844 23.7348C756.195 27.0595 756.872 30.8486 756.872 35.1023C756.872 40.2359 755.592 45.2963 753.033 50.2833C750.474 55.2214 746.249 58.7171 740.358 60.7706C745.283 62.7752 748.759 65.6354 750.787 69.3512C752.864 73.0181 753.902 78.6407 753.902 86.219V93.4794C753.902 98.4175 753.902 111.893 753.902 111.893H731.594V106.819C731.594 106.819 731.642 100.471 731.594 97.293L731.449 87.2457C731.352 80.3519 730.097 75.7561 727.682 73.4581C725.316 71.1602 720.85 70.0112 714.283 70.0112H691.251V112.401H669.449V4.30022H721.816ZM691.251 52.1167V23.0748H717.18C722.009 23.0748 725.63 23.7104 728.045 24.9816C732.342 27.2306 734.491 31.6309 734.491 38.1825C734.491 44.2451 732.27 48.3031 727.827 50.3566C725.317 51.53 721.55 52.1167 716.528 52.1167H691.251Z" fill="#D9D9D9"/>
<path d="M22.6563 23.0748V93.6261H43.2262C53.7526 93.6261 61.0921 88.3702 65.2447 77.8584C67.5142 72.0891 68.6489 65.2198 68.6489 57.2504C68.6489 46.2497 66.9347 37.8158 63.5064 31.9487C60.1264 26.0328 53.3663 23.0748 43.2262 23.0748H22.6563ZM46.9926 4.30022C53.6078 4.398 59.1124 5.18028 63.5064 6.64704C70.9908 9.14054 77.0507 13.712 81.6862 20.3613C85.4042 25.7394 87.9392 31.5576 89.2912 37.8158C90.6432 44.074 91.3193 50.0388 91.3193 55.7103C91.3193 70.0846 88.4704 82.2587 82.7726 92.2327C75.0468 105.678 63.1201 112.401 46.9926 112.401H1V4.30022H46.9926Z" stroke="black" stroke-width="2" mask="url(#path-1-outside-1_929_3082)"/>
<path d="M128.62 112.401H106.457V4.30022H128.62V112.401Z" stroke="black" stroke-width="2" mask="url(#path-1-outside-1_929_3082)"/>
<path d="M165.632 79.0318C166.308 83.9699 167.636 87.6613 169.615 90.1059C173.237 94.5551 179.441 96.7797 188.23 96.7797C193.493 96.7797 197.766 96.193 201.05 95.0195C207.278 92.7705 210.393 88.5902 210.393 82.4787C210.393 78.9096 208.848 76.1472 205.757 74.1915C202.667 72.2847 197.814 70.5979 191.199 69.1312L179.9 66.5643C168.794 64.0219 161.117 61.2595 156.868 58.2771C149.673 53.2901 146.076 45.4918 146.076 34.8822C146.076 25.2016 149.552 17.1588 156.506 10.754C163.459 4.34911 173.671 1.14668 187.143 1.14668C198.394 1.14668 207.979 4.17799 215.898 10.2406C223.865 16.2543 228.042 25.006 228.428 36.4957H206.989C206.602 29.993 203.802 25.3727 198.587 22.6348C195.11 20.8258 190.789 19.9212 185.622 19.9212C179.876 19.9212 175.289 21.0947 171.861 23.4415C168.432 25.7883 166.718 29.0641 166.718 33.2688C166.718 37.1313 168.408 40.0159 171.788 41.9227C173.961 43.1939 178.596 44.6851 185.695 46.3963L204.092 50.87C212.155 52.8256 218.239 55.4414 222.344 58.7171C228.718 63.8019 231.904 71.1602 231.904 80.7919C231.904 90.6682 228.162 98.882 220.678 105.434C213.242 111.936 202.715 115.188 189.099 115.188C175.192 115.188 164.255 111.985 156.288 105.58C148.321 99.1265 144.337 90.277 144.337 79.0318H165.632Z" stroke="black" stroke-width="2" mask="url(#path-1-outside-1_929_3082)"/>
<path d="M243.783 59.2305C243.783 40.3582 248.78 25.8128 258.776 15.5943C267.467 6.69593 278.525 2.24675 291.948 2.24675C309.911 2.24675 323.045 8.21159 331.35 20.1413C335.937 26.8395 338.4 33.5622 338.738 40.3093H316.429C314.981 35.1267 313.122 31.2153 310.852 28.5752C306.796 23.8815 300.785 21.5347 292.817 21.5347C284.705 21.5347 278.307 24.8594 273.624 31.5087C268.94 38.1091 266.598 47.472 266.598 59.5972C266.598 71.7225 269.061 80.8164 273.986 86.879C278.959 92.8927 285.261 95.8996 292.89 95.8996C300.712 95.8996 306.676 93.3083 310.78 88.1258C313.049 85.3389 314.932 81.1586 316.429 75.5849H338.52C336.589 87.3679 331.639 96.9508 323.672 104.333C315.753 111.716 305.589 115.408 293.18 115.408C277.825 115.408 265.753 110.421 256.965 100.447C248.177 90.4237 243.783 76.685 243.783 59.2305Z" stroke="black" stroke-width="2" mask="url(#path-1-outside-1_929_3082)"/>
<path d="M402.837 96.2663C411.674 96.2663 418.675 92.9661 423.842 86.3656C429.057 79.7652 431.664 70.3779 431.664 58.2038C431.664 46.0785 429.057 36.7157 423.842 30.1153C418.675 23.4659 411.674 20.1413 402.837 20.1413C394.001 20.1413 386.951 23.4415 381.688 30.0419C376.425 36.6424 373.793 46.0296 373.793 58.2038C373.793 70.3779 376.425 79.7652 381.688 86.3656C386.951 92.9661 394.001 96.2663 402.837 96.2663ZM453.972 58.2038C453.972 77.614 448.589 92.4772 437.821 102.793C429.757 111.203 418.096 115.408 402.837 115.408C387.579 115.408 375.918 111.203 367.854 102.793C357.038 92.4772 351.63 77.614 351.63 58.2038C351.63 38.4025 357.038 23.5393 367.854 13.6142C375.918 5.20472 387.579 1 402.837 1C418.096 1 429.757 5.20472 437.821 13.6142C448.589 23.5393 453.972 38.4025 453.972 58.2038Z" stroke="black" stroke-width="2" mask="url(#path-1-outside-1_929_3082)"/>
<path d="M533.572 4.30022H556.75L520.318 112.401H499.241L463.171 4.30022H487L510.178 86.3656L533.572 4.30022Z" stroke="black" stroke-width="2" mask="url(#path-1-outside-1_929_3082)"/>
<path d="M648.952 23.4415H592.457V46.3963H644.316V65.1709H592.457V92.9661H651.559V112.401H570.656V4.30022H648.952V23.4415Z" stroke="black" stroke-width="2" mask="url(#path-1-outside-1_929_3082)"/>
<path d="M418.048 205.364V207.857C418.241 216.218 419.134 222.109 420.727 225.532C422.369 228.905 425.846 230.592 431.157 230.592C436.42 230.592 439.897 228.734 441.587 225.018C442.601 222.818 443.108 219.102 443.108 213.871V138.259H465.416V213.504C465.416 222.696 463.847 229.981 460.708 235.359C455.397 244.453 445.812 249 431.954 249C418.096 249 408.801 245.333 404.069 237.999C399.337 230.617 396.971 220.569 396.971 207.857V205.364H418.048Z" stroke="black" stroke-width="2" mask="url(#path-1-outside-1_929_3082)"/>
<path d="M516.769 205.51H543.857L530.53 162.974L516.769 205.51ZM518.145 138.259H543.35L581.158 246.36H556.967L550.086 224.138H510.757L503.369 246.36H480.047L518.145 138.259Z" stroke="black" stroke-width="2" mask="url(#path-1-outside-1_929_3082)"/>
<path d="M587.242 227.292L642.361 157.401H588.618V138.259H670.174V156.374L614.331 227.292H670.319V246.36H587.242V227.292Z" stroke="black" stroke-width="2" mask="url(#path-1-outside-1_929_3082)"/>
<path d="M677.924 227.292L733.042 157.401H679.3V138.259H760.855V156.374L705.012 227.292H761V246.36H677.924V227.292Z" stroke="black" stroke-width="2" mask="url(#path-1-outside-1_929_3082)"/>
<path fill-rule="evenodd" clip-rule="evenodd" d="M721.816 4.30022C729.3 4.44689 735.046 5.37584 739.054 7.08707C743.11 8.79829 746.538 11.3162 749.339 14.6409C751.657 17.3789 753.492 20.4102 754.844 23.7348C756.195 27.0595 756.872 30.8486 756.872 35.1023C756.872 40.2359 755.592 45.2963 753.033 50.2833C750.474 55.2214 746.249 58.7171 740.358 60.7706C745.283 62.7752 748.759 65.6354 750.787 69.3512C752.864 73.0181 753.902 78.6407 753.902 86.219V93.4794C753.902 98.4175 753.902 111.893 753.902 111.893H731.594V106.819C731.594 106.819 731.642 100.471 731.594 97.293L731.449 87.2457C731.352 80.3519 730.097 75.7561 727.682 73.4581C725.316 71.1602 720.85 70.0112 714.283 70.0112H691.251V112.401H669.449V4.30022H721.816ZM691.251 52.1167V23.0748H717.18C722.009 23.0748 725.63 23.7104 728.045 24.9816C732.342 27.2306 734.491 31.6309 734.491 38.1825C734.491 44.2451 732.27 48.3031 727.827 50.3566C725.317 51.53 721.55 52.1167 716.528 52.1167H691.251Z" stroke="black" stroke-width="2" mask="url(#path-1-outside-1_929_3082)"/>
</svg>
