<svg width="760" height="256" viewBox="0 0 760 256" fill="none" xmlns="http://www.w3.org/2000/svg">
<path d="M21.6563 30.0748V100.626H42.2262C52.7526 100.626 60.0921 95.3702 64.2447 84.8584C66.5142 79.0891 67.6489 72.2198 67.6489 64.2504C67.6489 53.2497 65.9347 44.8158 62.5064 38.9487C59.1264 33.0328 52.3663 30.0748 42.2262 30.0748H21.6563ZM45.9926 11.3002C52.6078 11.398 58.1124 12.1803 62.5064 13.647C69.9908 16.1405 76.0507 20.712 80.6862 27.3613C84.4042 32.7394 86.9392 38.5576 88.2912 44.8158C89.6432 51.074 90.3193 57.0388 90.3193 62.7103C90.3193 77.0846 87.4704 89.2587 81.7726 99.2327C74.0468 112.678 62.1201 119.401 45.9926 119.401H0V11.3002H45.9926Z" fill="url(#paint0_linear_929_3081)"/>
<path d="M127.62 119.401H105.457V11.3002H127.62V119.401Z" fill="url(#paint1_linear_929_3081)"/>
<path d="M164.632 86.0318C165.308 90.9699 166.636 94.6613 168.615 97.1059C172.237 101.555 178.441 103.78 187.23 103.78C192.493 103.78 196.766 103.193 200.05 102.02C206.278 99.7705 209.393 95.5902 209.393 89.4787C209.393 85.9096 207.848 83.1472 204.757 81.1915C201.667 79.2847 196.814 77.5979 190.199 76.1312L178.9 73.5643C167.794 71.0219 160.117 68.2595 155.868 65.2771C148.673 60.2901 145.076 52.4918 145.076 41.8822C145.076 32.2016 148.552 24.1588 155.506 17.754C162.459 11.3491 172.671 8.14668 186.143 8.14668C197.394 8.14668 206.979 11.178 214.898 17.2406C222.865 23.2543 227.042 32.006 227.428 43.4957H205.989C205.602 36.993 202.802 32.3727 197.587 29.6348C194.11 27.8258 189.789 26.9212 184.622 26.9212C178.876 26.9212 174.289 28.0947 170.861 30.4415C167.432 32.7883 165.718 36.0641 165.718 40.2688C165.718 44.1313 167.408 47.0159 170.788 48.9227C172.961 50.1939 177.596 51.6851 184.695 53.3963L203.092 57.87C211.155 59.8256 217.239 62.4414 221.344 65.7171C227.718 70.8019 230.904 78.1602 230.904 87.7919C230.904 97.6682 227.162 105.882 219.678 112.434C212.242 118.936 201.715 122.188 188.099 122.188C174.192 122.188 163.255 118.985 155.288 112.58C147.321 106.126 143.337 97.277 143.337 86.0318H164.632Z" fill="url(#paint2_linear_929_3081)"/>
<path d="M242.783 66.2305C242.783 47.3582 247.78 32.8128 257.776 22.5943C266.467 13.6959 277.525 9.24675 290.948 9.24675C308.911 9.24675 322.045 15.2116 330.35 27.1413C334.937 33.8395 337.4 40.5622 337.738 47.3093H315.429C313.981 42.1267 312.122 38.2153 309.852 35.5752C305.796 30.8815 299.785 28.5347 291.817 28.5347C283.705 28.5347 277.307 31.8594 272.624 38.5087C267.94 45.1091 265.598 54.472 265.598 66.5972C265.598 78.7225 268.061 87.8164 272.986 93.879C277.959 99.8927 284.261 102.9 291.89 102.9C299.712 102.9 305.676 100.308 309.78 95.1258C312.049 92.3389 313.932 88.1586 315.429 82.5849H337.52C335.589 94.3679 330.639 103.951 322.672 111.333C314.753 118.716 304.589 122.408 292.18 122.408C276.825 122.408 264.753 117.421 255.965 107.447C247.177 97.4237 242.783 83.685 242.783 66.2305Z" fill="url(#paint3_linear_929_3081)"/>
<path d="M401.837 103.266C410.674 103.266 417.675 99.9661 422.842 93.3656C428.057 86.7652 430.664 77.3779 430.664 65.2038C430.664 53.0785 428.057 43.7157 422.842 37.1153C417.675 30.4659 410.674 27.1413 401.837 27.1413C393.001 27.1413 385.951 30.4415 380.688 37.0419C375.425 43.6424 372.793 53.0296 372.793 65.2038C372.793 77.3779 375.425 86.7652 380.688 93.3656C385.951 99.9661 393.001 103.266 401.837 103.266ZM452.972 65.2038C452.972 84.614 447.589 99.4772 436.821 109.793C428.757 118.203 417.096 122.408 401.837 122.408C386.579 122.408 374.918 118.203 366.854 109.793C356.038 99.4772 350.63 84.614 350.63 65.2038C350.63 45.4025 356.038 30.5393 366.854 20.6142C374.918 12.2047 386.579 8 401.837 8C417.096 8 428.757 12.2047 436.821 20.6142C447.589 30.5393 452.972 45.4025 452.972 65.2038Z" fill="url(#paint4_linear_929_3081)"/>
<path d="M532.572 11.3002H555.75L519.318 119.401H498.241L462.171 11.3002H486L509.178 93.3656L532.572 11.3002Z" fill="url(#paint5_linear_929_3081)"/>
<path d="M647.952 30.4415H591.457V53.3963H643.316V72.1709H591.457V99.9661H650.559V119.401H569.656V11.3002H647.952V30.4415Z" fill="url(#paint6_linear_929_3081)"/>
<path d="M417.048 212.364V214.857C417.241 223.218 418.134 229.109 419.727 232.532C421.369 235.905 424.846 237.592 430.157 237.592C435.42 237.592 438.897 235.734 440.587 232.018C441.601 229.818 442.108 226.102 442.108 220.871V145.259H464.416V220.504C464.416 229.696 462.847 236.981 459.708 242.359C454.397 251.453 444.812 256 430.954 256C417.096 256 407.801 252.333 403.069 244.999C398.337 237.617 395.971 227.569 395.971 214.857V212.364H417.048Z" fill="url(#paint7_linear_929_3081)"/>
<path d="M515.769 212.51H542.857L529.53 169.974L515.769 212.51ZM517.145 145.259H542.35L580.158 253.36H555.967L549.086 231.138H509.757L502.369 253.36H479.047L517.145 145.259Z" fill="url(#paint8_linear_929_3081)"/>
<path d="M586.242 234.292L641.361 164.401H587.618V145.259H669.174V163.374L613.331 234.292H669.319V253.36H586.242V234.292Z" fill="url(#paint9_linear_929_3081)"/>
<path d="M676.924 234.292L732.042 164.401H678.3V145.259H759.855V163.374L704.012 234.292H760V253.36H676.924V234.292Z" fill="url(#paint10_linear_929_3081)"/>
<path fill-rule="evenodd" clip-rule="evenodd" d="M720.816 11.3002C728.3 11.4469 734.046 12.3758 738.054 14.0871C742.11 15.7983 745.538 18.3162 748.339 21.6409C750.657 24.3789 752.492 27.4102 753.844 30.7348C755.195 34.0595 755.872 37.8486 755.872 42.1023C755.872 47.2359 754.592 52.2963 752.033 57.2833C749.474 62.2214 745.249 65.7171 739.358 67.7706C744.283 69.7752 747.759 72.6354 749.787 76.3512C751.864 80.0181 752.902 85.6407 752.902 93.219V100.479C752.902 105.418 752.902 118.893 752.902 118.893H730.594V113.819C730.594 113.819 730.642 107.471 730.594 104.293L730.449 94.2457C730.352 87.3519 729.097 82.7561 726.682 80.4581C724.316 78.1602 719.85 77.0112 713.283 77.0112H690.251V119.401H668.449V11.3002H720.816ZM690.251 59.1167V30.0748H716.18C721.009 30.0748 724.63 30.7104 727.045 31.9816C731.342 34.2306 733.491 38.6309 733.491 45.1825C733.491 51.2451 731.27 55.3031 726.827 57.3566C724.317 58.53 720.55 59.1167 715.528 59.1167H690.251Z" fill="url(#paint11_linear_929_3081)"/>
<defs>
<linearGradient id="paint0_linear_929_3081" x1="278.536" y1="6.9739" x2="278.536" y2="138.521" gradientUnits="userSpaceOnUse">
<stop stop-color="#1918B4"/>
<stop offset="0.557292" stop-color="#7073E6"/>
<stop offset="1" stop-color="#BEC5FF"/>
</linearGradient>
<linearGradient id="paint1_linear_929_3081" x1="278.536" y1="6.9739" x2="278.536" y2="138.521" gradientUnits="userSpaceOnUse">
<stop stop-color="#1918B4"/>
<stop offset="0.557292" stop-color="#7073E6"/>
<stop offset="1" stop-color="#BEC5FF"/>
</linearGradient>
<linearGradient id="paint2_linear_929_3081" x1="278.536" y1="6.9739" x2="278.536" y2="138.521" gradientUnits="userSpaceOnUse">
<stop stop-color="#1918B4"/>
<stop offset="0.557292" stop-color="#7073E6"/>
<stop offset="1" stop-color="#BEC5FF"/>
</linearGradient>
<linearGradient id="paint3_linear_929_3081" x1="278.536" y1="6.9739" x2="278.536" y2="138.521" gradientUnits="userSpaceOnUse">
<stop stop-color="#1918B4"/>
<stop offset="0.557292" stop-color="#7073E6"/>
<stop offset="1" stop-color="#BEC5FF"/>
</linearGradient>
<linearGradient id="paint4_linear_929_3081" x1="278.536" y1="6.9739" x2="278.536" y2="138.521" gradientUnits="userSpaceOnUse">
<stop stop-color="#1918B4"/>
<stop offset="0.557292" stop-color="#7073E6"/>
<stop offset="1" stop-color="#BEC5FF"/>
</linearGradient>
<linearGradient id="paint5_linear_929_3081" x1="278.536" y1="6.9739" x2="278.536" y2="138.521" gradientUnits="userSpaceOnUse">
<stop stop-color="#1918B4"/>
<stop offset="0.557292" stop-color="#7073E6"/>
<stop offset="1" stop-color="#BEC5FF"/>
</linearGradient>
<linearGradient id="paint6_linear_929_3081" x1="278.536" y1="6.9739" x2="278.536" y2="138.521" gradientUnits="userSpaceOnUse">
<stop stop-color="#1918B4"/>
<stop offset="0.557292" stop-color="#7073E6"/>
<stop offset="1" stop-color="#BEC5FF"/>
</linearGradient>
<linearGradient id="paint7_linear_929_3081" x1="278.536" y1="6.9739" x2="278.536" y2="138.521" gradientUnits="userSpaceOnUse">
<stop stop-color="#1918B4"/>
<stop offset="0.557292" stop-color="#7073E6"/>
<stop offset="1" stop-color="#BEC5FF"/>
</linearGradient>
<linearGradient id="paint8_linear_929_3081" x1="278.536" y1="6.9739" x2="278.536" y2="138.521" gradientUnits="userSpaceOnUse">
<stop stop-color="#1918B4"/>
<stop offset="0.557292" stop-color="#7073E6"/>
<stop offset="1" stop-color="#BEC5FF"/>
</linearGradient>
<linearGradient id="paint9_linear_929_3081" x1="278.536" y1="6.9739" x2="278.536" y2="138.521" gradientUnits="userSpaceOnUse">
<stop stop-color="#1918B4"/>
<stop offset="0.557292" stop-color="#7073E6"/>
<stop offset="1" stop-color="#BEC5FF"/>
</linearGradient>
<linearGradient id="paint10_linear_929_3081" x1="278.536" y1="6.9739" x2="278.536" y2="138.521" gradientUnits="userSpaceOnUse">
<stop stop-color="#1918B4"/>
<stop offset="0.557292" stop-color="#7073E6"/>
<stop offset="1" stop-color="#BEC5FF"/>
</linearGradient>
<linearGradient id="paint11_linear_929_3081" x1="278.536" y1="6.9739" x2="278.536" y2="138.521" gradientUnits="userSpaceOnUse">
<stop stop-color="#1918B4"/>
<stop offset="0.557292" stop-color="#7073E6"/>
<stop offset="1" stop-color="#BEC5FF"/>
</linearGradient>
</defs>
</svg>
