<svg width="400" height="96" viewBox="0 0 400 96" fill="none" xmlns="http://www.w3.org/2000/svg">
<path d="M51.9514 65.0776H66.645L51.5455 84.0447V89.225H74.2759V84.0447H58.9735L74.2353 64.7921V59.8566H51.9514V65.0776Z" fill="#5667FF"/>
<path d="M76.7652 65.0776H91.4588L76.3593 84.0447V89.225H99.0897V84.0447H83.7873L99.0491 64.7921V59.8566H76.7652V65.0776Z" fill="#5667FF"/>
<path d="M135.241 65.0776V59.8974H114.54V89.225H120.629V76.9066H133.455V71.8079H120.629V65.0776H135.241Z" fill="#5667FF"/>
<path d="M145.524 71.3184V65.0776H160.948V59.8566H139.557V89.225H161.678V83.9632H145.524V76.4171H159.69V71.3184H145.524Z" fill="#5667FF"/>
<path d="M170.851 80.1697H165.047C165.047 83.2289 166.102 85.6355 168.294 87.3487C170.486 89.1026 173.49 90 177.265 90C180.999 90 183.881 89.1026 185.951 87.3079C187.98 85.5539 188.995 83.3105 188.995 80.6592C188.995 78.0487 188.102 76.0092 186.357 74.6631C185.261 73.7658 183.597 73.0723 181.364 72.5013L176.331 71.3184C174.383 70.8289 173.124 70.421 172.556 70.0947C171.623 69.5644 171.136 68.7895 171.136 67.729C171.136 66.5869 171.623 65.6895 172.556 65.0776C173.49 64.425 174.748 64.0987 176.331 64.0987C177.711 64.0987 178.929 64.3434 179.862 64.8329C181.283 65.5671 182.054 66.8316 182.176 68.6263H188.021C187.94 65.4855 186.803 63.1198 184.611 61.4474C182.46 59.8158 179.822 59 176.737 59C173.043 59 170.243 59.8974 168.375 61.6105C166.468 63.3645 165.494 65.5263 165.494 68.1777C165.494 71.0737 166.508 73.1539 168.457 74.5408C169.634 75.3566 171.744 76.0908 174.748 76.7842L177.833 77.4776C179.659 77.8855 180.999 78.3342 181.851 78.8645C182.704 79.3947 183.11 80.1289 183.11 81.1079C183.11 82.7395 182.257 83.8816 180.552 84.4934C179.659 84.8197 178.482 84.9829 177.021 84.9829C174.626 84.9829 172.921 84.3711 171.947 83.1882C171.42 82.4947 171.014 81.5158 170.851 80.1697Z" fill="#5667FF"/>
<path d="M206.002 65.0776H214.729V59.8566H191.065V65.0776H199.832V89.225H206.002V65.0776Z" fill="#5667FF"/>
<path d="M217.827 59.8566V89.225H223.915V59.8566H217.827Z" fill="#5667FF"/>
<path d="M243.087 89.225L253.072 59.8566H246.74L240.327 82.1684L233.995 59.8566H227.46L237.323 89.225H243.087Z" fill="#5667FF"/>
<path d="M285.962 83.9632V59.8566H279.833V89.225H300.412V83.9632H285.962Z" fill="#5667FF"/>
<path d="M313.99 83.5553C313.138 85.2684 312.732 87.1447 312.651 89.225H332.337V84.2079H319.795C320.16 83.6368 320.606 83.1066 321.134 82.6579C321.621 82.2092 322.595 81.475 324.016 80.4553L326.289 78.8645C328.197 77.4776 329.536 76.2539 330.389 75.1526C331.647 73.521 332.296 71.604 332.296 69.4829C332.296 66.6684 331.403 64.425 329.577 62.7526C327.791 61.0395 325.355 60.2237 322.352 60.2237C318.496 60.2237 315.817 61.6513 314.315 64.5474C313.503 66.0566 313.097 68.0144 312.975 70.5026H318.455C318.536 68.871 318.739 67.6882 319.105 66.954C319.713 65.6487 320.891 64.9961 322.595 64.9961C323.854 64.9961 324.828 65.404 325.518 66.2198C326.167 67.0355 326.533 68.0553 326.533 69.279C326.533 70.7474 325.924 72.175 324.747 73.3987C323.975 74.2145 322.311 75.5605 319.713 77.4368C316.71 79.5987 314.802 81.5974 313.99 83.5553Z" fill="#5667FF"/>
<path d="M352.821 64.0171C351.36 61.4474 348.803 60.1421 345.109 60.1421C341.456 60.1421 338.899 61.4474 337.438 64.0171C335.936 66.6276 335.205 70.2987 335.205 75.071C335.205 79.8434 335.936 83.5145 337.438 86.0842C338.899 88.654 341.456 89.9592 345.109 89.9592C348.803 89.9592 351.36 88.654 352.821 86.0842C354.282 83.5145 355.054 79.8434 355.054 75.071C355.054 70.2987 354.282 66.6276 352.821 64.0171ZM341.781 82.6579C341.253 80.9039 340.969 78.375 340.969 75.071C340.969 71.5631 341.253 68.9934 341.781 67.3211C342.349 65.6487 343.445 64.8329 345.109 64.8329C346.814 64.8329 347.91 65.6487 348.437 67.3211C348.965 68.9934 349.209 71.5631 349.209 75.071C349.209 78.375 348.965 80.9039 348.437 82.6579C347.91 84.4526 346.814 85.3092 345.109 85.3092C343.445 85.3092 342.349 84.4526 341.781 82.6579Z" fill="#5667FF"/>
<path d="M359.099 83.5553C358.247 85.2684 357.841 87.1447 357.759 89.225H377.446V84.2079H364.903C365.269 83.6368 365.715 83.1066 366.243 82.6579C366.73 82.2092 367.704 81.475 369.125 80.4553L371.398 78.8645C373.305 77.4776 374.645 76.2539 375.497 75.1526C376.756 73.521 377.405 71.604 377.405 69.4829C377.405 66.6684 376.512 64.425 374.686 62.7526C372.9 61.0395 370.464 60.2237 367.46 60.2237C363.604 60.2237 360.926 61.6513 359.424 64.5474C358.612 66.0566 358.206 68.0144 358.084 70.5026H363.564C363.645 68.871 363.848 67.6882 364.213 66.954C364.822 65.6487 365.999 64.9961 367.704 64.9961C368.962 64.9961 369.936 65.404 370.626 66.2198C371.276 67.0355 371.641 68.0553 371.641 69.279C371.641 70.7474 371.032 72.175 369.855 73.3987C369.084 74.2145 367.42 75.5605 364.822 77.4368C361.818 79.5987 359.911 81.5974 359.099 83.5553Z" fill="#5667FF"/>
<path d="M385.672 80.3737H380.111C380.233 82.6579 380.679 84.5342 381.532 85.921C383.115 88.6132 385.915 89.9592 390.015 89.9592C393.303 89.9592 395.819 89.0211 397.483 87.1447C399.188 85.3092 400 83.1882 400 80.7408C400 78.375 399.31 76.5394 397.849 75.2342C396.875 74.3368 396.144 73.8881 395.616 73.8881C396.306 73.6434 396.956 73.1131 397.605 72.3789C398.62 71.2368 399.107 69.7684 399.107 68.0961C399.107 65.6895 398.295 63.7724 396.59 62.3447C394.926 60.9171 392.694 60.2237 389.934 60.2237C388.432 60.2237 387.214 60.3869 386.199 60.754C385.185 61.1211 384.292 61.6105 383.561 62.304C382.546 63.2421 381.816 64.3026 381.369 65.4447C380.923 66.7092 380.72 68.0553 380.639 69.5237H385.915C385.875 68.0961 386.199 66.954 386.808 66.0974C387.458 65.2408 388.432 64.8329 389.771 64.8329C390.908 64.8329 391.801 65.1592 392.491 65.8526C393.1 66.5461 393.424 67.4434 393.424 68.5447C393.424 70.2579 392.775 71.4 391.557 71.9302C390.827 72.2566 389.528 72.4605 387.701 72.4605V76.5395C389.568 76.5395 390.948 76.7026 391.801 77.0697C393.343 77.7224 394.114 78.9868 394.114 80.8631C394.114 82.3316 393.709 83.3921 392.897 84.1671C392.044 84.9421 391.07 85.3092 389.974 85.3092C388.188 85.3092 386.93 84.6158 386.24 83.2289C385.834 82.4539 385.672 81.5158 385.672 80.3737Z" fill="#5667FF"/>
<path d="M49.9349 89.225L39.5845 59.8566H33.7323L36.0938 66.5869L41.4517 83.1882L43.3188 89.225H49.9349Z" fill="#5667FF"/>
<path d="M22.2526 89.225H28.6658L30.6547 83.1882H39.9842L38.1461 78.1302H31.8779L26.6053 78.0895L22.2526 89.225Z" fill="#5667FF"/>
<path d="M276.513 89.225L266.162 59.8566H260.31L262.672 66.5869L268.03 83.1882L269.897 89.225H276.513Z" fill="#5667FF"/>
<path d="M248.831 89.225H255.244L257.233 83.1882H266.562L264.724 78.1302H258.456L253.183 78.0895L248.831 89.225Z" fill="#5667FF"/>
<path d="M12.1999 80.2921H0V80.9855C0.423281 85.3324 0.846561 85.7567 1.69312 87.0297C2.96296 88.727 5.38084 89.9592 9.1557 89.9592C12.9306 89.9592 15.5689 88.6947 17.0302 86.2474C17.8825 84.7789 18.2884 82.7803 18.2884 80.2921V59.8566H12.1999V80.2921Z" fill="#5667FF"/>
<path d="M35.8475 6.69314C33.3776 3.3467 29.2387 1.67348 23.2975 1.53963H0V49.7284H21.7622C24.1654 49.7284 26.5018 49.5276 28.5712 49.0591C30.7073 48.6575 32.5097 47.8544 34.0451 46.6496C35.3802 45.6457 36.515 44.3741 37.4496 42.8347C38.9182 40.626 39.5858 38.0158 39.5858 35.2048C39.5858 32.3938 38.985 30.0513 37.7834 28.1104C36.4483 26.1694 34.6459 24.7639 32.176 23.8938C33.7781 23.0907 35.0464 22.1537 35.8475 21.1498C37.3161 19.3427 38.0504 17.0002 38.0504 14.0553C38.0504 11.1774 37.3161 8.76793 35.8475 6.69314ZM21.3616 20.5474H9.54598V9.90573H20.0933C22.4297 9.90573 24.3656 10.1734 25.8342 10.7089C27.5699 11.3782 28.4377 12.8506 28.4377 15.1262C28.4377 17.134 27.8369 18.5395 26.5018 19.3427C25.1667 20.1458 23.4978 20.5474 21.3616 20.5474ZM21.3616 41.3623H9.54598V28.5119H21.4951C23.6313 28.5789 25.2334 28.8466 26.3683 29.3151C28.4377 30.2521 29.5058 31.9922 29.5058 34.4686C29.5058 37.4804 28.3709 39.4882 26.3015 40.4922C25.0999 41.0945 23.4978 41.3623 21.3616 41.3623Z" fill="#5667FF"/>
<path d="M58.0556 41.0945V1.53963H47.9755V49.7284H81.8204V41.0945H58.0556Z" fill="#5667FF"/>
<path d="M97.035 31.1891V1.53963H86.8214V31.1891C86.8214 36.2757 87.6225 40.2914 89.2246 43.1024C92.1618 48.3228 97.836 51 106.18 51C114.458 51 120.132 48.3228 123.069 43.1024C124.672 40.2914 125.473 36.2757 125.473 31.1891V1.53963H115.259V31.1891C115.259 34.4686 114.859 36.878 114.058 38.4174C112.856 41.1615 110.252 42.5 106.18 42.5C102.108 42.5 99.4381 41.1615 98.2365 38.4174C97.4355 36.878 97.035 34.4686 97.035 31.1891Z" fill="#5667FF"/>
<path d="M256.37 35.1376L237.212 1.47243H226.731V49.6612H236.077V15.4606L255.703 49.6612H265.716V1.47243H256.37V35.1376Z" fill="#5667FF"/>
<path d="M312.023 45.3777C316.896 40.7596 319.299 34.2006 319.299 25.4999C319.299 16.6653 316.896 10.0393 312.023 5.62202C308.418 1.87401 303.211 0 296.335 0C289.46 0 284.186 1.87401 280.581 5.62202C275.708 10.0393 273.238 16.6653 273.238 25.4999C273.238 34.2006 275.708 40.7596 280.581 45.3777C284.186 49.1257 288.642 50.9997 295.517 50.9997C302.393 50.9997 308.418 49.1257 312.023 45.3777ZM305.815 38.0825C303.411 41.0273 300.274 42.4998 296.335 42.4998C292.33 42.4998 289.193 41.0273 286.789 38.0825C284.386 35.1376 283.251 30.9211 283.251 25.4999C283.251 20.0786 284.386 15.9291 286.789 12.9842C289.193 10.0393 292.33 8.56689 296.335 8.56689C300.274 8.56689 303.411 10.0393 305.815 12.9842C308.084 15.9291 309.286 20.1456 309.286 25.4999C309.286 30.9211 308.084 35.1376 305.815 38.0825Z" fill="#5667FF"/>
<path d="M347.558 10.0393H361.91V1.47243H322.992V10.0393H337.411V49.6612H347.558V10.0393Z" fill="#5667FF"/>
<path d="M377.953 20.2794V10.0393L400 10.3742V1.80734L368.14 1.47243V49.6612L400 49.9961V41.3623L377.953 41.0273V28.6455L400 28.9804V20.6143L377.953 20.2794Z" fill="#5667FF"/>
<path d="M141.98 10.3073H219.632V1.49998H141.98V10.3073Z" fill="url(#paint0_linear_1228_6327)"/>
<path d="M219.632 30.0431V21.1849H141.98V30.0431H219.632Z" fill="url(#paint1_linear_1228_6327)"/>
<path d="M141.98 40.8699V49.7281H219.632V40.8699H141.98Z" fill="url(#paint2_linear_1228_6327)"/>
<path d="M141.98 1.49998H133.333L133.156 49.7281H141.98V40.8699V30.0431V21.1849V10.3073V1.49998Z" fill="url(#paint3_linear_1228_6327)"/>
<defs>
<linearGradient id="paint0_linear_1228_6327" x1="146.598" y1="-0.211012" x2="146.598" y2="49.407" gradientUnits="userSpaceOnUse">
<stop stop-color="#384CFF"/>
<stop offset="0.588542" stop-color="#6D70F7"/>
<stop offset="1" stop-color="#9BA6FF"/>
</linearGradient>
<linearGradient id="paint1_linear_1228_6327" x1="146.598" y1="-0.211012" x2="146.598" y2="49.407" gradientUnits="userSpaceOnUse">
<stop stop-color="#384CFF"/>
<stop offset="0.588542" stop-color="#6D70F7"/>
<stop offset="1" stop-color="#9BA6FF"/>
</linearGradient>
<linearGradient id="paint2_linear_1228_6327" x1="146.598" y1="-0.211012" x2="146.598" y2="49.407" gradientUnits="userSpaceOnUse">
<stop stop-color="#384CFF"/>
<stop offset="0.588542" stop-color="#6D70F7"/>
<stop offset="1" stop-color="#9BA6FF"/>
</linearGradient>
<linearGradient id="paint3_linear_1228_6327" x1="146.598" y1="-0.211012" x2="146.598" y2="49.407" gradientUnits="userSpaceOnUse">
<stop stop-color="#384CFF"/>
<stop offset="0.588542" stop-color="#6D70F7"/>
<stop offset="1" stop-color="#9BA6FF"/>
</linearGradient>
</defs>
</svg>
