<svg width="11" height="12" viewBox="0 0 11 12" fill="none" xmlns="http://www.w3.org/2000/svg">
<path d="M11 1.17238C11 0.762035 10.9997 0.556708 10.9248 0.399976C10.8589 0.262111 10.7541 0.150105 10.6248 0.0798588C10.4777 0 10.2848 0 9.89973 0H1.09973C0.714695 0 0.52237 0 0.375305 0.0798588C0.245944 0.150105 0.140846 0.262111 0.074933 0.399976C0 0.556708 0 0.762035 0 1.17238V1.71257C0 1.89178 0 1.98145 0.0189957 2.06577C0.0358372 2.14053 0.0636847 2.21195 0.101379 2.2775C0.143882 2.35142 0.203436 2.41489 0.322266 2.54153L3.8029 6.25097C3.9218 6.37768 3.98093 6.4407 4.02344 6.51464C4.06114 6.58019 4.08936 6.65185 4.1062 6.72662C4.125 6.81008 4.125 6.89869 4.125 7.07427V10.5589C4.125 11.1869 4.125 11.5012 4.24912 11.6903C4.35751 11.8554 4.52472 11.9656 4.71179 11.9951C4.92603 12.0288 5.18974 11.8885 5.71686 11.6076L6.26686 11.3145C6.48759 11.1969 6.59768 11.1379 6.67832 11.0502C6.74962 10.9726 6.80417 10.8794 6.8374 10.7767C6.87498 10.6606 6.875 10.5288 6.875 10.2658V7.07973C6.875 6.90052 6.875 6.81094 6.894 6.72662C6.91084 6.65185 6.93868 6.58019 6.97638 6.51464C7.01861 6.44119 7.07758 6.37834 7.1949 6.25331L7.19727 6.25097L10.6779 2.54153C10.7968 2.41481 10.8559 2.35145 10.8984 2.2775C10.9361 2.21195 10.9644 2.14053 10.9812 2.06577C11 1.98231 11 1.8936 11 1.71802V1.17238Z" fill="#BEC5FF"/>
</svg>
