<svg width="25" height="20" viewBox="0 0 25 20" fill="none" xmlns="http://www.w3.org/2000/svg">
<path d="M21.7656 5.125C21.7656 5.35938 21.7656 5.54688 21.7656 5.78125C21.7656 12.2969 16.8438 19.75 7.79688 19.75C4.98438 19.75 2.40625 18.9531 0.25 17.5469C0.625 17.5938 1 17.6406 1.42188 17.6406C3.71875 17.6406 5.82812 16.8438 7.51562 15.5312C5.35938 15.4844 3.53125 14.0781 2.92188 12.1094C3.25 12.1562 3.53125 12.2031 3.85938 12.2031C4.28125 12.2031 4.75 12.1094 5.125 12.0156C2.875 11.5469 1.1875 9.57812 1.1875 7.1875V7.14062C1.84375 7.51562 2.64062 7.70312 3.4375 7.75C2.07812 6.85938 1.23438 5.35938 1.23438 3.67188C1.23438 2.73438 1.46875 1.89062 1.89062 1.1875C4.32812 4.14062 7.98438 6.10938 12.0625 6.34375C11.9688 5.96875 11.9219 5.59375 11.9219 5.21875C11.9219 2.5 14.125 0.296875 16.8438 0.296875C18.25 0.296875 19.5156 0.859375 20.4531 1.84375C21.5312 1.60938 22.6094 1.1875 23.5469 0.625C23.1719 1.79688 22.4219 2.73438 21.3906 3.34375C22.375 3.25 23.3594 2.96875 24.2031 2.59375C23.5469 3.57812 22.7031 4.42188 21.7656 5.125Z" fill="#F4F9FF"/>
</svg>
